<svg width="525" height="650" viewBox="0 0 525 650" fill="none" xmlns="http://www.w3.org/2000/svg">
<g clip-path="url(#clip0_1470_2238)">
<rect width="650" height="525" transform="matrix(0 1 -1 0 525 0)" fill="url(#paint0_linear_1470_2238)"/>
<rect x="249.087" y="-49.8174" width="149" height="22" transform="rotate(45.4612 249.087 -49.8174)" fill="#DB5C28"/>
<rect x="-57" y="129" width="149" height="22" fill="#EAA424"/>
<rect x="427" y="195" width="149" height="22" fill="#84613F"/>
<rect x="-57" y="504.837" width="149" height="22" transform="rotate(-27.9504 -57 504.837)" fill="#176066"/>
<rect x="442" y="524" width="149" height="22" fill="#297868"/>
<rect x="273" y="575" width="149" height="22" transform="rotate(90 273 575)" fill="#205E7A"/>
<path d="M357.928 76.028L338.302 70.6422L352.779 56.3375L357.928 76.028Z" stroke="#2F2F2F" stroke-opacity="0.5"/>
<path d="M355.683 68.1772L357.712 75.7026L350.181 73.6974L355.683 68.1772Z" fill="#2F2F2F"/>
<path d="M409.406 206.338L426.87 195.888L427.189 216.238L409.406 206.338Z" stroke="#2F2F2F" stroke-opacity="0.5"/>
<path d="M416.629 210.147L409.79 206.408L416.448 202.355L416.629 210.147Z" fill="#2F2F2F"/>
<path d="M424.406 535.338L441.87 524.888L442.189 545.238L424.406 535.338Z" stroke="#2F2F2F" stroke-opacity="0.5"/>
<path d="M431.629 539.147L424.79 535.408L431.448 531.355L431.629 539.147Z" fill="#2F2F2F"/>
<path d="M262.121 558.41L272.354 576.002L252.001 576.068L262.121 558.41Z" stroke="#2F2F2F" stroke-opacity="0.5"/>
<path d="M258.223 565.586L262.047 558.794L266.017 565.501L258.223 565.586Z" fill="#2F2F2F"/>
<path d="M95.0069 437.156L84.0823 454.327L74.6734 436.28L95.0069 437.156Z" stroke="#2F2F2F" stroke-opacity="0.5"/>
<path d="M86.8428 436.991L94.6322 437.267L90.4986 443.874L86.8428 436.991Z" fill="#2F2F2F"/>
<path d="M109.904 139.99L92.4244 150.413L92.1374 130.063L109.904 139.99Z" stroke="#2F2F2F" stroke-opacity="0.5"/>
<path d="M102.688 136.171L109.521 139.921L102.857 143.963L102.688 136.171Z" fill="#2F2F2F"/>
</g>
<defs>
<linearGradient id="paint0_linear_1470_2238" x1="60.218" y1="385.94" x2="702.496" y2="133.636" gradientUnits="userSpaceOnUse">
<stop stop-color="#F6EEE4"/>
<stop offset="1" stop-color="white"/>
</linearGradient>
<clipPath id="clip0_1470_2238">
<rect width="650" height="525" fill="white" transform="matrix(0 1 -1 0 525 0)"/>
</clipPath>
</defs>
</svg>
