<svg width="525" height="650" viewBox="0 0 525 650" fill="none" xmlns="http://www.w3.org/2000/svg">
<g clip-path="url(#clip0_1485_2184)">
<rect width="650" height="525" transform="matrix(0 1 -1 0 525 0)" fill="url(#paint0_linear_1485_2184)"/>
<circle cx="387" cy="125" r="15" transform="rotate(90 387 125)" fill="#84613F"/>
<circle cx="337" cy="125" r="15" transform="rotate(90 337 125)" fill="#DB5C28"/>
<circle cx="287" cy="125" r="15" transform="rotate(90 287 125)" fill="#EAA424"/>
<circle cx="237" cy="125" r="15" transform="rotate(90 237 125)" fill="#84613F"/>
<circle cx="187" cy="125" r="15" transform="rotate(90 187 125)" fill="#DB5C28"/>
<circle cx="137" cy="125" r="15" transform="rotate(90 137 125)" fill="#EAA424"/>
<circle cx="387" cy="538" r="15" transform="rotate(90 387 538)" fill="#297868"/>
<circle cx="337" cy="538" r="15" transform="rotate(90 337 538)" fill="#205E7A"/>
<circle cx="287" cy="538" r="15" transform="rotate(90 287 538)" fill="#176066"/>
<circle cx="237" cy="538" r="15" transform="rotate(90 237 538)" fill="#297868"/>
<circle cx="187" cy="538" r="15" transform="rotate(90 187 538)" fill="#205E7A"/>
<circle cx="137" cy="538" r="15" transform="rotate(90 137 538)" fill="#176066"/>
</g>
<defs>
<linearGradient id="paint0_linear_1485_2184" x1="60.218" y1="385.94" x2="702.496" y2="133.636" gradientUnits="userSpaceOnUse">
<stop stop-color="#F6EEE4"/>
<stop offset="1" stop-color="white"/>
</linearGradient>
<clipPath id="clip0_1485_2184">
<rect width="650" height="525" fill="white" transform="matrix(0 1 -1 0 525 0)"/>
</clipPath>
</defs>
</svg>
